# xmcd CD database file
# Copyright (C) 1993-1998 Ti Kan
#
# Track frame offsets:
#	150
#	13265
#	31665
#	45115
#	59375
#	78307
#	96020
#	110285
#	129092
#	140555
#	155957
#
# Disc length: 2294 seconds
#
# Revision: 1
# Processed by: cddbd v1.4b41PL1 Copyright (c) Steve Scherf et al.
# Submitted via: NotifyCDPlayer(CDDB) 1.51.3
#
DISCID=8108f40b
DTITLE=The Hayes Family - One Purpose
DYEAR=1900
DGENRE=
TTITLE0=I Have A Heavenly Father
TTITLE1=His Blood Has Made Us One
TTITLE2=The Breeze
TTITLE3=Nothing's Too Hard
TTITLE4=This House Belongs To The Lord
TTITLE5=Walking Home
TTITLE6=Let The Celebration Begin
TTITLE7=What A Difference A Day Makes
TTITLE8=Jesus, You're Everything To Me
TTITLE9=Reunite Our Families
TTITLE10=Just Look At Him Now
EXTD=
EXTT0=
EXTT1=
EXTT2=
EXTT3=
EXTT4=
EXTT5=
EXTT6=
EXTT7=
EXTT8=
EXTT9=
EXTT10=
PLAYORDER=
